PathFileType	4	(X/Y/Z)	4_coords_data.trc
DataRate	CameraRate	NumFrames	NumMarkers	Units	OrigDataRate	OrigDataStartFrame	OrigNumFrames
30.0	30.0	8	21	m	30.0	38	47
Frame#	Time	THUMB_TIP	THUMB_IP	THUMB_MCP	THUMB_CMC	INDEX_TIP	INDEX_DIP	INDEX_PIP	INDEX_MCP	MIDDLE_TIP	MIDDLE_DIP	MIDDLE_PIP	MIDDLE_MCP	RING_TIP	RING_DIP	RING_PIP	RING_MCP	PINKY_TIP	PINKY_DIP	PINKY_PIP	PINKY_MCP	WRIST
X1	Y1	Z1	X2	Y2	Z2	X3	Y3	Z3	X4	Y4	Z4	X5	Y5	Z5	X6	Y6	Z6	X7	Y7	Z7	X8	Y8	Z8	X9	Y9	Z9	X10	Y10	Z10	X11	Y11	Z11	X12	Y12	Z12	X13	Y13	Z13	X14	Y14	Z14	X15	Y15	Z15	X16	Y16	Z16	X17	Y17	Z17	X18	Y18	Z18	X19	Y19	Z19	X20	Y20	Z20	X21	Y21	Z21
36	1.233333333333328	0.48988275478707366	0.007048536512934245	-0.1663692229840779	0.4854795166561481	-0.0004791712510342494	-0.14511022230712572	0.46671299341269146	-0.004615557756005084	-0.1206249632308102	0.4695895987450196	-0.02206851376510932	-0.07967365716731217	0.5651963689741777	0.022935287542316884	-0.16738076479323818	0.5523964778933582	0.02624355313281257	-0.15500263217551657	0.5343124933511886	0.028682701772352215	-0.1377101514398673	0.5029798508103789	0.024196484561071263	-0.10921847790981543	0.58948869732633	0.018542992380202183	-0.15029969824166434	0.5766728118376481	0.021828191266609287	-0.1379319762437481	0.5553851326376025	0.025729113868471543	-0.11841206161457431	0.519233599952912	0.018242727234924372	-0.09324921955091245	0.5989014697416735	0.005411961400294318	-0.12405255542604272	0.5866823353977951	0.010034519489716676	-0.11162980562593114	0.5676264466565818	0.014633368006744973	-0.09627064954234613	0.5311409657012348	0.0050175712870582645	-0.08174250558302754	0.5980118452969544	-0.020926754955079896	-0.09580288144035101	0.5859691580631877	-0.0154447772657057	-0.08494370998011172	0.5689738019270378	-0.009677134381487429	-0.0740485649895409	0.533394608779946	-0.011735552736717225	-0.06850172986698813	0.4622830810018609	-0.023011742144276925	-0.051989820119430985
37	1.2666666666666608	0.4890099580343743	0.007178661799549069	-0.16659905388984636	0.48521137804419556	-0.0006358001605070163	-0.1453268895821637	0.4667532066656429	-0.004823548593463456	-0.12061699940793899	0.4696866859849006	-0.02223742958914887	-0.07965309520250963	0.566831954345378	0.024105952925717378	-0.16711698973467398	0.5536438462169602	0.02637281987316531	-0.15491309206893905	0.5351734921329343	0.027696753123392037	-0.13791006134616332	0.5036566874809539	0.023077562200694568	-0.10964364675660865	0.5920709698864298	0.019659473232844116	-0.14896586393838376	0.5783679009188001	0.02156360194870266	-0.1372782553420186	0.5561882312708765	0.024085771130724187	-0.11854031343458817	0.5197666871144307	0.01711583526160776	-0.09361965862295674	0.6013821154520271	0.005819549063230012	-0.1225310902207164	0.5880771495355267	0.009253974218864647	-0.11086135989773521	0.5682202036957438	0.012868209995978486	-0.09627304331687639	0.5314906944176753	0.003954622618115189	-0.08191296176246049	0.6000142986445457	-0.02148992692250795	-0.09321095446646027	0.5869408981567794	-0.016484432821515793	-0.08336051140579534	0.5692156708388638	-0.011131641990281937	-0.07346223045174691	0.5335069833848317	-0.012655599992294486	-0.06861964402315807	0.4622830810018609	-0.023011742144276925	-0.051989820119430985
39	1.3000000000000012	0.4885217347731804	0.007190529359436315	-0.16675346104715633	0.48515440197575277	-0.0008778312557522483	-0.14550345806328266	0.46691147421760293	-0.005100688629135042	-0.12064017062145406	0.4697823152088316	-0.02242018909610055	-0.07963184005828841	0.5680288809710828	0.024740251337292518	-0.16684078654242054	0.5545731161884992	0.026293319867620957	-0.15481870800932632	0.5358339779365744	0.026874994632889893	-0.13807009060242675	0.5041635340592268	0.02217790106039652	-0.10998884435901699	0.5939046382789973	0.020144735319301832	-0.14781989077844312	0.5796118122745265	0.021074090087283337	-0.13673605459591343	0.5567946361088605	0.022660283564066575	-0.11867310876531388	0.5201709646067585	0.016228350975106554	-0.09390448244334762	0.6031023539337461	0.005765898498497735	-0.12134684460138578	0.589064338178626	0.008354989584371086	-0.11033636227734331	0.5686578848857632	0.011329410593445388	-0.09637536436648506	0.5317597935505525	0.0031267523444405976	-0.0820237760408507	0.6014351024558886	-0.0222168445343498	-0.09113569147804296	0.587611255112374	-0.01758229753509677	-0.08216784788357051	0.569380216693573	-0.01249351733715287	-0.07308238844173634	0.5335921555480115	-0.013374630718617553	-0.06868673494645686	0.462283081001861	-0.023011742144276925	-0.051989820119430985
40	1.3333333333333344	0.48827296300414835	0.0071397925850571475	-0.16684307290845551	0.48522158349000266	-0.0011343149753380022	-0.14562449078948098	0.46711407069465116	-0.005381222360072768	-0.12066649090904846	0.4698862790572731	-0.022594319031994936	-0.07960660581718207	0.5689839556683234	0.02516633805545021	-0.16655320388789935	0.5553242575187727	0.026159949959068007	-0.15470308229155477	0.5363740635446803	0.02617555629660484	-0.1381834050009264	0.5045663967192564	0.02144326015100062	-0.11026363067674674	0.5953035727921364	0.0203578582403644	-0.1468211438188963	0.5805723027232762	0.020500872771712975	-0.13628695049419756	0.5572680313601536	0.021387824759572016	-0.11880742526022246	0.5204928718703612	0.015508117397342036	-0.09412616502426849	0.6043856536127589	0.005529317289953539	-0.1204103131709837	0.5897981631175578	0.007431496625341372	-0.10998981247147599	0.5689883644362087	0.009946959176794334	-0.09654344842784085	0.5319771833907231	0.0024621516729089743	-0.08209107947849337	0.6024850923618705	-0.022878173196072438	-0.08941503225277134	0.5881038376326637	-0.01855589229559651	-0.08119935210861728	0.569497516319034	-0.013672258660887171	-0.07278704275292289	0.5336611874411678	-0.013956869629969337	-0.06871764720153078	0.4622830810018609	-0.023011742144276925	-0.051989820119430985
41	1.3666666666666676	0.48818838289316024	0.007055297806087268	-0.16688796733212488	0.485349228097665	-0.0013729333737305671	-0.1457006097992289	0.4673161232688098	-0.005635468364130647	-0.12069145296243944	0.4699833853647164	-0.022745478472812386	-0.07958156039395234	0.5696936844839607	0.02543172824164419	-0.16630057155188063	0.5558866082065256	0.026017211142229768	-0.15459493810288655	0.5367801973644158	0.025632703587571748	-0.13826070865448814	0.5048609593400457	0.020886376248433258	-0.11047094948436664	0.5963059475987288	0.020382815879945948	-0.14603315555051494	0.5812615966198388	0.01992780448396725	-0.13596039682941466	0.5576029367753914	0.020327249391329683	-0.11894517399423792	0.5207290962962436	0.01496283577282198	-0.09429378709921862	0.6052761233480769	0.005212597007438924	-0.11975552912517272	0.5902956077759306	0.00658761126327323	-0.10982106945245093	0.5692055976470933	0.00879779269506309	-0.0967632537926969	0.5321378343619242	0.0019685053242985973	-0.0821323757246459	0.6032068331052598	-0.02342582176385366	-0.08812346471114052	0.5884381548469272	-0.019343062054081872	-0.08049344402610206	0.5695723619386484	-0.01460552700698503	-0.07259093565094252	0.5337130613855553	-0.014389407566740786	-0.06872476089668139	0.4622830810018609	-0.023011742144276925	-0.051989820119430985
42	1.4000000000000008	0.4881927059204123	0.006964696000881787	-0.1669063625791349	0.4854734410500483	-0.0015614536086953068	-0.14574246947318872	0.467473063645366	-0.005833683808816326	-0.12071139953189036	0.47005865197497576	-0.02285939333530118	-0.07956130903248132	0.5701462045124165	0.02558013980374696	-0.1661236263646091	0.5562451619932302	0.025908199856171432	-0.15451960148176008	0.5370380019783794	0.02528071648679897	-0.1383115447880945	0.5050420075705855	0.020519803485053667	-0.11061269746106211	0.5969282976595641	0.020287010462546884	-0.1455226277572691	0.5816820798032724	0.019434170390263406	-0.1357847889369972	0.5577945602623018	0.019537872425305913	-0.11908792677467207	0.5208751696889906	0.014600145667770792	-0.09441556622357702	0.6057961492603907	0.004905439736030193	-0.11942208240642549	0.5905661117861387	0.00592450344902129	-0.10983003008787848	0.5693065377956199	0.007959165174646565	-0.09702102370939866	0.532235604321952	0.001653908291097017	-0.08216469640338722	0.6036330458213004	-0.023809733192437288	-0.08733024110525978	0.5886297151489414	-0.01988123907013517	-0.08008683012238121	0.5696098850330666	-0.01523125725369101	-0.07250819235098699	0.5337461442860918	-0.014659088534636378	-0.06872029404312405	0.4622830810018609	-0.023011742144276925	-0.051989820119430985
43	1.433333333333334	0.4882103808525039	0.0068948309727068224	-0.16691509748956543	0.48553011066582275	-0.0016675949864253248	-0.1457608777350869	0.46754042078209046	-0.005946012014389712	-0.12072318204195318	0.4700972079982101	-0.022921818042492936	-0.07955068091768691	0.5703213985662132	0.02565150505833702	-0.1660578685598773	0.5563806125095373	0.025874391318421508	-0.15449911404924527	0.537132125337779	0.025153528525130975	-0.13834405504496095	0.5051033162652513	0.02035567850954234	-0.11068954151419211	0.5971687027445876	0.020126318011546296	-0.14535734308770848	0.5818277593830565	0.019096243712609873	-0.13578684656365247	0.5578381842010159	0.019078670170045386	-0.11923663436695163	0.520925378880031	0.014427494319128265	-0.09449882347878066	0.605950461534026	0.004688201129019687	-0.1194529598798618	0.5906133204250247	0.005541175798110087	-0.11001661859647907	0.5692898459746385	0.007507282371626234	-0.09730348203207026	0.5322631534414226	0.0015265777099873201	-0.08220460638515711	0.6037786655261685	-0.023979137594655753	-0.08710303530113087	0.5886866065832022	-0.020107562815008362	-0.08001497029101548	0.5696136173954037	-0.01548787296733145	-0.07255229194116039	0.5337579635697226	-0.014752689699175092	-0.0687162724814663	0.4622830810018609	-0.023011742144276925	-0.051989820119430985
44	1.4666666666666672	0.48816526480623434	0.006872087913183944	-0.1669293518979707	0.4854548452737626	-0.001659013766753481	-0.14576631974082074	0.4674735819373539	-0.005942511048448451	-0.12072344011677523	0.47008412743687933	-0.022918468614555265	-0.07955437506899146	0.5701906479368006	0.025682682070158114	-0.1661328607260203	0.5562692316587246	0.025955663702929233	-0.15455185689039858	0.5370459842368744	0.02528430225250622	-0.13836464387020198	0.5050375519095074	0.020405402998325717	-0.11070071978102186	0.5970062891387532	0.01995202559053877	-0.1455972286406952	0.5816848391250151	0.018989157486376973	-0.13598858386161672	0.5577280156551688	0.019007502883903182	-0.11939099901679641	0.5208726777970962	0.01445193713430426	-0.09454992792337513	0.6057256451147364	0.004637529445780109	-0.1198852636634544	0.5904350313017216	0.005535441541455799	-0.1103778516554639	0.5691532805086267	0.007516298524892107	-0.09759726998670648	0.5322118359074268	0.001594483206902808	-0.08226812754115176	0.6036314042808016	-0.02388291519632091	-0.08750998029486709	0.5886052959550074	-0.019958549062818243	-0.08031168750895484	0.5695829069159122	-0.015314339135500621	-0.0727359335269206	0.5337449429915285	-0.014657159451194945	-0.06872446152563225	0.4622830810018608	-0.023011742144276925	-0.051989820119430985
